<svg width="24" height="16" viewBox="0 0 24 16" fill="none" xmlns="http://www.w3.org/2000/svg">
<path d="M21.7817 4.90564L14 0.413975C13.5269 0.142138 12.9906 -0.000617691 12.4448 2.00901e-06C11.8991 0.00062171 11.3631 0.144595 10.8906 0.417506C10.418 0.690417 10.0254 1.08269 9.75212 1.55504C9.47883 2.0274 9.33443 2.56326 9.33338 3.10897L4.66671 0.413975C4.19352 0.142138 3.65722 -0.000617691 3.1115 2.00901e-06C2.56578 0.00062171 2.02981 0.144595 1.55723 0.417506C1.08466 0.690417 0.692075 1.08269 0.418787 1.55504C0.145499 2.0274 0.00109744 2.56326 4.1874e-05 3.10897V12.0923C-0.00280371 12.6371 0.139429 13.1727 0.412127 13.6443C0.684825 14.1159 1.07816 14.5064 1.55171 14.7756C2.02421 15.0582 2.56449 15.2074 3.11504 15.2073C3.65996 15.2044 4.19472 15.0596 4.66671 14.7873L9.33338 12.0923C9.33088 12.6386 9.47314 13.1757 9.7457 13.6491C10.0183 14.1225 10.4114 14.5152 10.885 14.7873C11.3582 15.0619 11.8955 15.2065 12.4425 15.2065C12.9896 15.2065 13.5269 15.0619 14 14.7873L21.7817 10.2956C22.254 10.0219 22.6461 9.62882 22.9186 9.15583C23.1911 8.68284 23.3346 8.14653 23.3346 7.60064C23.3346 7.05475 23.1911 6.51844 22.9186 6.04545C22.6461 5.57246 22.254 5.1794 21.7817 4.90564ZM9.33338 9.39731L3.50004 12.7573C3.38225 12.824 3.24915 12.859 3.11378 12.8588C2.97841 12.8586 2.84542 12.8232 2.72781 12.7562C2.61021 12.6892 2.51203 12.5927 2.44288 12.4764C2.37374 12.36 2.33601 12.2277 2.33338 12.0923V3.10897C2.33601 2.97363 2.37374 2.84129 2.44288 2.72491C2.51203 2.60854 2.61021 2.51211 2.72781 2.44507C2.84542 2.37804 2.97841 2.3427 3.11378 2.3425C3.24915 2.34231 3.38225 2.37728 3.50004 2.44397L9.33338 5.80398V9.39731ZM20.615 8.23064L12.8334 12.769C12.7138 12.8354 12.5793 12.8702 12.4425 12.8702C12.3058 12.8702 12.1713 12.8354 12.0517 12.769C11.9332 12.7006 11.8351 12.6018 11.7674 12.4829C11.6997 12.364 11.665 12.2291 11.6667 12.0923V3.10897C11.665 2.97215 11.6997 2.83733 11.7674 2.7184C11.8351 2.59947 11.9332 2.50072 12.0517 2.43231C12.1742 2.36757 12.3099 2.33165 12.4484 2.32731C12.5839 2.32613 12.7172 2.36247 12.8334 2.43231L20.615 6.92398C20.7337 6.99262 20.8323 7.09128 20.9008 7.21005C20.9693 7.32882 21.0054 7.46352 21.0054 7.60064C21.0054 7.73776 20.9693 7.87247 20.9008 7.99124C20.8323 8.11001 20.7337 8.20867 20.615 8.27731V8.23064Z" fill="white" fill-opacity="0.8"/>
</svg>
