<svg width="24" height="24" viewBox="0 0 24 24" fill="none" xmlns="http://www.w3.org/2000/svg">
<path d="M23.5787 0.289336C23.4479 0.177089 23.2944 0.0943383 23.1288 0.0467143C22.9631 -0.000909638 22.7892 -0.0122888 22.6187 0.0133516L7.01961 2.41322C6.73553 2.45631 6.47636 2.59991 6.28919 2.81791C6.10202 3.03591 5.99929 3.31383 5.99966 3.60115V16.0204C5.43901 15.7466 4.82371 15.603 4.19977 15.6005C3.36913 15.6005 2.55715 15.8468 1.8665 16.3083C1.17585 16.7697 0.63756 17.4256 0.31969 18.1931C0.00181969 18.9605 -0.0813496 19.8049 0.0806992 20.6196C0.242748 21.4342 0.642737 22.1826 1.23008 22.7699C1.81743 23.3573 2.56576 23.7573 3.38043 23.9193C4.19511 24.0813 5.03954 23.9982 5.80694 23.6803C6.57435 23.3624 7.23026 22.8241 7.69174 22.1335C8.15322 21.4429 8.39953 20.6309 8.39953 19.8002V10.6328L21.5988 8.60487V13.6206C21.0381 13.3467 20.4228 13.2032 19.7989 13.2006C18.9683 13.2006 18.1563 13.4469 17.4656 13.9084C16.775 14.3699 16.2367 15.0258 15.9188 15.7932C15.6009 16.5606 15.5178 17.405 15.6798 18.2197C15.8419 19.0344 16.2419 19.7827 16.8292 20.3701C17.4166 20.9574 18.1649 21.3574 18.9796 21.5194C19.7942 21.6815 20.6387 21.5983 21.4061 21.2804C22.1735 20.9626 22.8294 20.4243 23.2909 19.7336C23.7523 19.043 23.9986 18.231 23.9986 17.4004V1.20128C23.9987 1.02797 23.9611 0.856701 23.8886 0.699274C23.8161 0.541846 23.7104 0.401993 23.5787 0.289336ZM4.19977 21.6001C3.84378 21.6001 3.49579 21.4946 3.1998 21.2968C2.9038 21.099 2.67311 20.8179 2.53688 20.489C2.40065 20.1601 2.365 19.7982 2.43445 19.4491C2.5039 19.0999 2.67532 18.7792 2.92704 18.5275C3.17876 18.2758 3.49948 18.1044 3.84862 18.0349C4.19777 17.9655 4.55967 18.0011 4.88856 18.1373C5.21744 18.2736 5.49855 18.5043 5.69633 18.8003C5.8941 19.0963 5.99966 19.4442 5.99966 19.8002C5.99966 20.2776 5.81003 20.7354 5.47249 21.073C5.13494 21.4105 4.67713 21.6001 4.19977 21.6001ZM19.7989 19.2003C19.4429 19.2003 19.0949 19.0947 18.7989 18.8969C18.5029 18.6992 18.2722 18.418 18.136 18.0892C17.9998 17.7603 17.9641 17.3984 18.0336 17.0492C18.103 16.7001 18.2744 16.3794 18.5262 16.1276C18.7779 15.8759 19.0986 15.7045 19.4477 15.6351C19.7969 15.5656 20.1588 15.6013 20.4877 15.7375C20.8166 15.8737 21.0977 16.1044 21.2954 16.4004C21.4932 16.6964 21.5988 17.0444 21.5988 17.4004C21.5988 17.8777 21.4092 18.3355 21.0716 18.6731C20.7341 19.0106 20.2762 19.2003 19.7989 19.2003ZM21.5988 6.169L8.39953 8.19689V4.59709L21.5988 2.60521V6.169Z" fill="white" fill-opacity="0.8"/>
</svg>
