<svg width="24" height="24" viewBox="0 0 24 24" fill="none" xmlns="http://www.w3.org/2000/svg">
<path d="M12 6.11788C12 5.27295 11.017 4.80883 10.3646 5.3457L6.7213 8.34361C6.54231 8.4909 6.31771 8.57143 6.08591 8.57143H3C2.44772 8.57143 2 9.01914 2 9.57143V14.4286C2 14.9809 2.44772 15.4286 3 15.4286H6.08591C6.31771 15.4286 6.54231 15.5091 6.7213 15.6564L10.3646 18.6543C11.017 19.1912 12 18.727 12 17.8821V6.11788Z" fill="white"/>
<path fill-rule="evenodd" clip-rule="evenodd" d="M18.1173 4.21218C18.5524 3.87204 19.1808 3.94902 19.521 4.38412C21.1256 6.43677 22 9.1783 22 12C22 14.8217 21.1256 17.5633 19.521 19.6159C19.1808 20.051 18.5524 20.128 18.1173 19.7878C17.6821 19.4477 17.6052 18.8192 17.9453 18.3841C19.2436 16.7234 20 14.4291 20 12C20 9.57095 19.2436 7.27667 17.9453 5.61591C17.6052 5.1808 17.6821 4.55233 18.1173 4.21218ZM15.3842 7.70723C15.8193 7.36709 16.4477 7.44407 16.7879 7.87917C17.6668 9.00347 18.1335 10.486 18.1335 11.9951C18.1335 13.5041 17.6668 14.9867 16.7879 16.111C16.4477 16.5461 15.8193 16.623 15.3842 16.2829C14.949 15.9427 14.8721 15.3143 15.2122 14.8792C15.7848 14.1468 16.1335 13.1114 16.1335 11.9951C16.1335 10.8787 15.7848 9.84337 15.2122 9.11096C14.8721 8.67585 14.949 8.04738 15.3842 7.70723Z" fill="white"/>
</svg>
